<svg version="1.2" xmlns="http://www.w3.org/2000/svg" xmlns:xlink="http://www.w3.org/1999/xlink" overflow="visible" preserveAspectRatio="none" viewBox="0 -1.5042492917847028 54 54" width="24" height="24"><g>
	<g>
		<path d="M51.1,4.4l-1.5-1.5c-3.8-3.8-10-3.8-13.8,0L0.3,38.2c-0.4,0.4-0.4,1,0,1.4c0.4,0.4,1,0.4,1.4,0L37.2,4.2c3-3,7.9-3,10.9,0    l1.5,1.5c3,3,3,7.9,0,10.9L18.8,47.5c-1,1-2.4,1.6-3.9,1.6c-1.5,0-2.9-0.6-3.9-1.6c-2.2-2.2-2.2-5.7,0-7.8l25.5-25.4    c0.4-0.4,1-0.7,1.6-0.7c0.6,0,1.2,0.2,1.6,0.7c0.4,0.4,0.7,1,0.7,1.6c0,0.6-0.2,1.2-0.7,1.6L21.1,35.9c-0.4,0.4-0.4,1,0,1.4    s1,0.4,1.4,0l18.5-18.5c0.8-0.8,1.3-1.9,1.3-3c0-1.1-0.4-2.2-1.3-3c-0.8-0.8-1.9-1.2-3-1.2s-2.2,0.4-3,1.2L9.6,38.2    c-2.9,2.9-2.9,7.7,0,10.6c1.4,1.4,3.3,2.2,5.3,2.2c2,0,3.9-0.8,5.3-2.2l30.9-30.8C54.9,14.3,54.9,8.2,51.1,4.4z" style="fill: rgb(140, 140, 140);" vector-effect="non-scaling-stroke"/>
	</g>
</g><g/></svg>