<svg version="1.2" xmlns="http://www.w3.org/2000/svg" xmlns:xlink="http://www.w3.org/1999/xlink" overflow="visible" preserveAspectRatio="none" viewBox="0 -65.52465642683916 684 684" width="24" height="24"><g><g xmlns:default="http://www.w3.org/2000/svg">
	<path d="M513,52.6L460.4,0H315.7l-52.6,52.6H0v499.9h684V52.6H513z M657.7,526.2H26.3V78.9h236.8h10.5l7.9-7.9l44.7-44.7h123.7   L494.6,71l7.9,7.9H513h144.7V526.2z" style="fill: rgb(140, 140, 140);" vector-effect="non-scaling-stroke"/>
	<path d="M210.5,289.4c0,102.6,81.6,184.2,184.2,184.2S578.8,392,578.8,289.4s-81.6-184.2-184.2-184.2S210.5,186.8,210.5,289.4z    M552.5,289.4c0,86.8-71,157.9-157.9,157.9s-157.9-71-157.9-157.9s71-157.9,157.9-157.9S552.5,202.6,552.5,289.4z" style="fill: rgb(140, 140, 140);" vector-effect="non-scaling-stroke"/>
	<path d="M289.4,289.4h26.3c0-44.7,34.2-78.9,78.9-78.9v-26.3C336.8,184.2,289.4,231.5,289.4,289.4z" style="fill: rgb(140, 140, 140);" vector-effect="non-scaling-stroke"/>
	<circle cx="92.1" cy="144.7" r="21" style="fill: rgb(140, 140, 140);" vector-effect="non-scaling-stroke"/>
</g></g></svg>