<svg height="189" overflow="visible" viewBox="0 0 302 189" width="302" xmlns="http://www.w3.org/2000/svg" style="filter: drop-shadow(rgb(0, 0, 0) 0px 0px 1.16667px);"><g><defs><path id="path-1722967017726190847" d="M12 -2 C12 -2 22.320000000000025 15 22.320000000000025 15 C22.320000000000025 15 1.6800000000000015 15 1.6800000000000015 15 C1.6800000000000015 15 12 -2 12 -2 Z" vector-effect="non-scaling-stroke"/></defs> <path d="M10.32 172 C10.32 172 20.640000000000022 189 20.640000000000022 189 C20.640000000000022 189 0 189 0 189 C0 189 10.32 172 10.32 172 Z" style="stroke: rgb(140, 140, 140); stroke-width: 0; stroke-linecap: butt; stroke-linejoin: miter; fill: rgb(41, 171, 226);" vector-effect="non-scaling-stroke"/></g><g><defs><path id="path-1722967017725190844" d="M0 5.000000000000001 C0 2.2385762510000005 2.2385762510000005 0 5.000000000000001 0 C5.000000000000001 0 286.6800000000006 0 286.6800000000006 0 C289.4414237490006 0 291.6800000000006 2.2385762510000005 291.6800000000006 5.000000000000001 C291.6800000000006 5.000000000000001 291.6800000000006 184.0000000000002 291.6800000000006 184.0000000000002 C291.6800000000006 186.7614237490002 289.4414237490006 189.0000000000002 286.6800000000006 189.0000000000002 C286.6800000000006 189.0000000000002 5.000000000000001 189.0000000000002 5.000000000000001 189.0000000000002 C2.2385762510000005 189.0000000000002 0 186.7614237490002 0 184.0000000000002 C0 184.0000000000002 0 5.000000000000001 0 5.000000000000001 Z" vector-effect="non-scaling-stroke"/></defs> <path d="M10.319999999999993 5.000000000000001 C10.319999999999993 2.2385762510000005 12.558576250999993 0 15.319999999999993 0 C15.319999999999993 0 297.00000000000057 0 297.00000000000057 0 C299.7614237490006 0 302.00000000000057 2.2385762510000005 302.00000000000057 5.000000000000001 C302.00000000000057 5.000000000000001 302.00000000000057 184.00000000000023 302.00000000000057 184.00000000000023 C302.00000000000057 186.76142374900022 299.7614237490006 189.00000000000023 297.00000000000057 189.00000000000023 C297.00000000000057 189.00000000000023 15.319999999999993 189.00000000000023 15.319999999999993 189.00000000000023 C12.558576250999993 189.00000000000023 10.319999999999993 186.76142374900022 10.319999999999993 184.00000000000023 C10.319999999999993 184.00000000000023 10.319999999999993 5.000000000000001 10.319999999999993 5.000000000000001 Z" style="stroke: rgb(140, 140, 140); stroke-width: 0; stroke-linecap: butt; stroke-linejoin: miter; fill: rgb(41, 171, 226);" vector-effect="non-scaling-stroke"/></g></svg>