<svg version="1.2" xmlns="http://www.w3.org/2000/svg" xmlnsXlink="http://www.w3.org/1999/xlink" overflow="visible" preserveAspectRatio="none" viewBox="0 0 632 632" width="24" height="24"><g><g xmlnsDefault="http://www.w3.org/2000/svg">
	<path d="M315.7,0C142.1,0,0,142.1,0,315.7s142.1,315.7,315.7,315.7s315.7-142.1,315.7-315.7S489.3,0,315.7,0z M315.7,605.1   c-160.5,0-289.4-128.9-289.4-289.4S155.2,26.3,315.7,26.3s289.4,128.9,289.4,289.4S476.2,605.1,315.7,605.1z" style="fill: rgb(243, 239, 239);" vector-effect="non-scaling-stroke"/>
	<path d="M247.3,234.2c0-28.9,28.9-55.2,73.7-55.2s78.9,28.9,78.9,28.9l18.4-26.3c0,0-28.9-28.9-84.2-31.6v-44.7h-28.9V150   c-55.2,5.3-92.1,44.7-92.1,86.8c0,100,178.9,81.6,178.9,163.1c0,34.2-31.6,55.2-71,55.2c-55.2,0-92.1-36.8-92.1-36.8l-21,23.7   c0,0,34.2,36.8,100,39.5v44.7h28.9v-42.1c57.9-5.3,92.1-42.1,92.1-86.8C426.2,292,247.3,307.8,247.3,234.2z" style="fill: rgb(243, 239, 239);" vector-effect="non-scaling-stroke"/>
</g></g></svg>