<svg width="22" height="22" viewBox="0 0 22 22" fill="none" xmlns="http://www.w3.org/2000/svg">
<path d="M1.25 1.25H3.41667L3.85 3.41667M5.58333 12.0833H16.4167L20.75 3.41667H3.85M5.58333 12.0833L3.85 3.41667M5.58333 12.0833L3.09937 14.5673C2.4169 15.2498 2.90025 16.4167 3.8654 16.4167H16.4167M16.4167 16.4167C15.2201 16.4167 14.25 17.3867 14.25 18.5833C14.25 19.78 15.2201 20.75 16.4167 20.75C17.6133 20.75 18.5833 19.78 18.5833 18.5833C18.5833 17.3867 17.6133 16.4167 16.4167 16.4167ZM7.75 18.5833C7.75 19.78 6.77995 20.75 5.58333 20.75C4.38672 20.75 3.41667 19.78 3.41667 18.5833C3.41667 17.3867 4.38672 16.4167 5.58333 16.4167C6.77995 16.4167 7.75 17.3867 7.75 18.5833Z" stroke="#F2F2F2" stroke-width="2" stroke-linecap="round" stroke-linejoin="round"/>
</svg>
