<svg version="1.2" xmlns="http://www.w3.org/2000/svg" xmlnsXlink="http://www.w3.org/1999/xlink" overflow="visible" preserveAspectRatio="none" viewBox="0 0 596 596" width="24" height="24"><g><path xmlnsDefault="http://www.w3.org/2000/svg" d="M330.8,212.5c0,28.7,23.3,52,52,52c15.3,0,29.2-6.7,38.8-17.4c14.3,5.5,29.6,8.4,45.7,8.4c70.5,0,127.7-57.3,127.7-127.7  S537.8,0,467.3,0c-57.9,0-107,38.8-122.5,91.9c-2.7,0-5.5-0.2-8-0.2c-92.7,0-168,75.5-168,168c0,25.8,6.1,51.6,17.6,74.7L0,520.8  l75.1,75.1l186.3-186.1c23.5,11.7,49.3,18,75.5,18c40.3,0,79.3-14.5,109.7-40.7c30.2-26,50.1-61.7,56.2-100.9l-23.5-3.8  c-5.2,33.6-22.4,64.4-48.5,86.6c-26.2,22.7-59.6,35-94.2,35c-25.2,0-49.9-6.7-71.7-19.3l-8-4.6L74.9,562.3L33.6,521l182.3-182.3  l-4.4-7.8c-12.4-21.6-18.7-46.4-18.7-71.1c0-79.5,64.8-144.3,144.3-144.3c1,0,2.3,0,3.4,0c-0.4,4-0.6,8.2-0.6,12.4  c0,16.2,2.9,31.5,8.4,45.7C337.5,183.1,330.8,197,330.8,212.5z M411.1,215.2c-12.4-8-22.9-18.7-30.8-30.8c0.8,0,1.9-0.2,2.7-0.2  c15.5,0,28.3,12.6,28.3,28.3C411.3,213.3,411.1,214.4,411.1,215.2z M363.5,127.9c0-3.4,0.2-6.7,0.4-9.9  c46.8,8.8,86.8,40.5,105.7,85.6l22-9.2c-22-52.2-68.4-89.1-122.7-99.6c13.8-41.1,52.9-70.9,98.6-70.9c57.3,0,104,46.6,104,104  s-46.6,104-104,104c-12,0-23.5-2.1-34.2-5.9c1-4.4,1.9-8.8,1.9-13.6c0-28.7-23.3-52-52-52c-4.8,0-9.2,0.6-13.6,1.9  C365.6,151.4,363.5,139.9,363.5,127.9z M399,235.8c-4.6,3.1-10.1,5-15.9,5c-15.5,0-28.3-12.6-28.3-28.3c0-5.9,1.9-11.5,5-15.9  C369.8,212.1,383.2,225.7,399,235.8z" style="fill: rgb(243, 239, 239);" vector-effect="non-scaling-stroke"/></g></svg>