<svg version="1.2" xmlns="http://www.w3.org/2000/svg" xmlnsXlink="http://www.w3.org/1999/xlink" overflow="visible" preserveAspectRatio="none" viewBox="0 0 24 24" width="50" height="50"><g><path xmlnsDefault="http://www.w3.org/2000/svg" id="qrcode" d="M8.67,15.33H7.34v1.33h1.33V15.33L8.67,15.33z M8.67,7.33H7.34v1.34h1.33V7.34l0,0V7.33z M15.33,7.33v1.34h1.33  V7.34h-1.33V7.33z M6,14h4v4H6V14z M6,6h4v4H6V6z M14,6h4v4h-4V6z M4.67,12.67v6.66h6.66v-6.66H4.67z M15.33,18v1.33h1.33V18H15.33z   M18,18v1.33h1.33V18H18z M19.33,12.67H18V14h-1.34v-1.33h-4v6.66H14v-4h1.33v1.33h4v-4l0,0V12.67z M4.67,4.67v6.66h6.66V4.67H4.67z   M12.67,4.67v6.66h6.66V4.67H12.67z" style="fill: rgb(38, 147, 193);" vector-effect="non-scaling-stroke"/></g></svg>