<svg version="1.2" xmlns="http://www.w3.org/2000/svg" xmlnsXlink="http://www.w3.org/1999/xlink" overflow="visible" preserveAspectRatio="none" viewBox="0 0 24 24" width="24" height="24"><g><defs> </defs> <rect display="none" fill="#FFA400" width="24" height="24" style="fill: rgb(38, 147, 193);" vector-effect="non-scaling-stroke"/> <rect id="_x3C_Slice_x3E__109_" display="none" fill="none" width="24" height="24" style="fill: rgb(38, 147, 193);" vector-effect="non-scaling-stroke"/> <path fill-rule="evenodd" clip-rule="evenodd" d="M20,16c-1.365,0-2.567,0.686-3.289,1.729l-8.864-4.692C7.937,12.704,8,12.361,8,12 s-0.063-0.704-0.153-1.037l8.864-4.692C17.433,7.313,18.635,8,20,8c2.209,0,4-1.791,4-4s-1.791-4-4-4c-2.209,0-4,1.791-4,4 c0,0.038,0.01,0.074,0.011,0.111L6.682,9.051C5.972,8.404,5.036,8,4,8c-2.209,0-4,1.791-4,4s1.791,4,4,4 c1.036,0,1.971-0.404,2.682-1.051l9.329,4.939C16.01,19.927,16,19.962,16,20c0,2.209,1.791,4,4,4c2.209,0,4-1.791,4-4 S22.209,16,20,16z M20,2c1.104,0,2,0.896,2,2s-0.896,2-2,2s-2-0.896-2-2S18.896,2,20,2z M4,14c-1.104,0-2-0.896-2-2s0.896-2,2-2 s2,0.896,2,2S5.104,14,4,14z M20,22c-1.104,0-2-0.896-2-2s0.896-2,2-2s2,0.896,2,2S21.104,22,20,22z" style="fill: rgb(38, 147, 193);" vector-effect="non-scaling-stroke"/> </g></svg>