<?xml version="1.0" encoding="UTF-8"?>
<!-- Created with Inkscape (http://www.inkscape.org/) -->
<svg width="707.85" height="825.88" version="1.1" viewBox="0 0 707.85 825.88" xmlns="http://www.w3.org/2000/svg">
 <g transform="translate(308.2 -984.42)">
  <path d="m-266.7 1809.1c-2.8992-2.2663-4.3696-7.1402-4.7199-15.645-0.54414-13.213 1.2661-21.051 8.3415-36.117 4.9052-10.445 5.7934-14.567 4.4099-20.465-3.2535-13.872-3.3911-20.018-0.55794-24.925 3.4671-6.0045 8.1707-8.2976 21.848-10.652 13.805-2.376 17.504-4.0082 23.72-10.466 1.8786-1.9518 12.16-16.149 22.848-31.549 10.688-15.4 28.108-40.394 38.711-55.542 10.603-15.148 20.296-29.398 21.54-31.667s3.0473-6.9741 4.007-10.457c2.6474-9.6087 4.0765-13.113 7.3668-18.062 4.5223-6.8025 11.157-12.582 18.797-16.374 7.1304-3.5387 13.491-8.2885 31.243-23.332 24.265-20.562 43.594-38.749 47.585-44.773 1.659-2.5043 1.8135-3.1334 1.2007-4.891-1.5047-4.3162-5.3215-6.0425-25.533-11.548-6.2333-1.6979-19.599-5.7712-29.702-9.0518-15.173-4.9268-20.451-6.9907-30.333-11.862-6.5803-3.2435-14.959-7.9437-18.619-10.445s-8.3127-5.2215-10.339-6.0448c-11.28-4.5834-34.343-3.5684-52.709 2.3199-7.8283 2.5098-17.276 7.2998-27.01 13.694-8.3894 5.5111-14.005 7.9788-20.529 9.021-7.3379 1.1723-8.2751 0.8451-26.983-9.4196-23.158-12.707-38.44-24.73-43.089-33.899-3.1558-6.2251-3.8292-15.01-1.9675-25.667 1.3888-7.9495 2.9073-12.362 7.6597-22.256 11.52-23.986 27.45-36.564 57.4-45.322 18.868-5.5173 42.149-8.6328 82.888-11.092 35.313-2.1316 59.497-5.9572 80.422-12.721 10.574-3.4179 16.985-6.3134 32.291-14.585 22.585-12.205 23.691-12.776 33.386-17.256 29.771-13.757 62.764-24.129 90.234-28.369 19.298-2.9781 25.813-3.5402 45.007-3.8834 21.671-0.3874 26.281 0.06 42.925 4.169 14.337 3.5392 28.186 8.1746 74.734 25.016 33.171 12.001 40.676 13.611 61 13.088 15.614-0.4017 21.044-1.2798 29.003-4.6902 10.419-4.4647 20.819-13.236 24.899-21.001 10.201-19.412 13.886-43.447 9.023-58.854-3.6339-11.514-15.21-24.471-42.23-47.268-13.697-11.556-25.657-23.402-31.274-30.975-15.992-21.561-21.328-50.77-13.356-73.108 7.182-20.124 19.52-28.996 38.454-27.652 11.13 0.79005 19.206 4.3906 30.37 13.54 16.305 13.362 18.969 14.821 34.444 18.857 9.6165 2.5083 14.392 5.3795 16.988 10.215l1.6549 3.0819-1.3738 1.84c-1.7009 2.2783-6.2421 4.6217-10.246 5.2872-1.6631 0.2765-12.174 0.5442-23.357 0.5951-16.036 0.073-21.56 0.33-26.137 1.2165-14.747 2.8563-19.846 7.478-20.404 18.497-0.3231 6.3755 0.9195 9.2266 7.1665 16.444 5.0236 5.804 11.84 11.828 30.039 26.547 18.215 14.732 26.6 23.762 33.228 35.786 13.065 23.7 15.622 55.054 6.8112 83.521-4.7315 15.287-14.431 33.221-25.421 47-15.152 18.999-42.068 41.074-67.53 55.385-6.1126 3.4355-10.495 7.9549-12.076 12.452-0.7832 2.2283-1.2829 7.0039-1.6911 16.163-0.8361 18.76-2.7877 29.964-7.6635 44-4.8722 14.025-10.994 24.096-20.168 33.178-5.5205 5.4652-7.1012 6.5992-13.698 9.8269-16.338 7.9942-52.583 18.088-96.79 26.955-10.633 2.1327-21.021 4.522-23.085 5.3095-5.4492 2.0799-16.969 9.5628-21.468 13.946-11.701 11.396-43.274 52.859-55.024 72.258l-1.4974 2.4722 2.8705-0.946c9.7671-3.2188 106.02-32.544 123.47-37.615 12.275-3.5685 14.617-4.0502 19.693-4.0502 9.5626 0 16.845 2.5235 22.846 7.9162 3.2473 2.9183 19.267 26.337 34.061 49.794 5.9404 9.4187 6.4671 10.638 6.4671 14.969 0 4.5069-1.0525 6.3998-4.4815 8.0597-5.2361 2.5348-12.046 0.5558-20.05-5.8263-5.6963-4.5425-8.6031-5.5228-18.545-6.2543-15.43-1.1355-20.186-4.5766-24.528-17.747-2.2732-6.8959-3.1818-7.7374-8.2766-7.6657-4.3302 0.061-5.1248 0.2892-59.453 17.083-61.947 19.149-67.128 20.939-80.874 27.933-13.826 7.0349-18.524 8.4081-24.431 7.1413-7.2309-1.5507-12.906-6.2046-16.268-13.341-1.9085-4.0512-2.0691-4.9398-2.0592-11.394 0.0173-11.187 1.4427-16.334 8.6149-31.105 8.2714-17.035 24.943-45.621 40.878-70.089l0.9949-1.5276-3.5947 1.4148c-16.465 6.4806-34.228 14.251-39.888 17.448-5.0969 2.8794-29.3 21.449-49.04 37.626-15.245 12.493-14.571 11.751-16.551 18.233-2.1559 7.0599-7.1261 14.83-11.951 18.684-1.9238 1.5364-6.9749 4.5395-11.225 6.6733-12.164 6.1078-14.326 8.4051-36.37 38.643-80.158 109.95-94.768 129.62-103.1 138.82-16.831 18.586-20.238 23.182-26.681 35.987-5.5489 11.029-7.0783 12.533-12.723 12.508-2.1909-0.01-3.9258-0.4247-4.875-1.1666z" stroke-width=".66667"/>
 </g>
</svg>
