<svg xmlns="http://www.w3.org/2000/svg" xml:space="preserve" width="449.741" height="549.013" viewBox="0 0 118.994 145.26"><path d="M81.225 208.048c25.467-24.35 86.511-83.15 86.42-83.243-.068-.067-7.72 2.096-17.007 4.808-9.286 2.711-16.918 4.895-16.961 4.852-.043-.043 5.032-8.701 11.278-19.24 11.356-19.163 11.356-19.163 15.413-14.961 8.007 8.29 12.41 16.149 14.524 25.92.694 3.204.784 4.613.762 11.924-.024 8.29-.024 8.29-1.273 13.053-4.393 16.755-13.253 28.333-26.95 35.22-5.852 2.942-12.487 4.792-21.106 5.885-5.65.717-13.893 2.786-19.038 4.78-2.128.824-9.59 4.332-16.58 7.794-12.712 6.296-12.712 6.296-9.482 3.208zm-1.675-30.49c-8.762-9.853-13.523-18.638-15.88-29.3-.547-2.478-.77-5.086-.918-10.755-.181-6.918-.136-7.745.6-10.936 5.697-24.699 21.996-39.332 47.451-42.6 12.45-1.599 18.57-3.76 37.747-13.33 6.597-3.291 11.915-5.914 11.818-5.827-1.024.918-82.428 79.079-85.638 82.227-2.378 2.331-4.283 4.274-4.233 4.317.049.043 7.63-2.126 16.846-4.819 9.217-2.693 16.847-4.857 16.957-4.81.11.048-3.19 5.802-7.335 12.787-4.144 6.985-9.25 15.6-11.345 19.144-3.809 6.443-3.809 6.443-6.07 3.901z" style="fill:#29abe2;fill-opacity:1;stroke-width:.352778" transform="translate(-59.663 -64.808)"/></svg>