<?xml version="1.0" encoding="UTF-8" standalone="no"?>
<!-- Created with Inkscape (http://www.inkscape.org/) -->

<svg
   width="118.994mm"
   height="145.25975mm"
   viewBox="0 0 118.99401 145.25975"
   version="1.1"
   id="svg5"
   xml:space="preserve"
   xmlns="http://www.w3.org/2000/svg"
   xmlns:svg="http://www.w3.org/2000/svg"><defs
     id="defs2" /><g
     id="layer1"
     transform="translate(-59.662927,-64.808028)"><path
       style="fill:#29abe2;fill-opacity:1;stroke-width:0.352778"
       d="m 81.224581,208.04763 c 25.467649,-24.35051 86.511649,-83.15037 86.419509,-83.24251 -0.0672,-0.0672 -7.71976,2.09628 -17.0057,4.80773 -9.28593,2.71145 -16.9186,4.89482 -16.96149,4.85193 -0.0429,-0.0429 5.0323,-8.70097 11.2782,-19.24018 11.35619,-19.162202 11.35619,-19.162202 15.41313,-14.96094 8.00643,8.29122 12.40959,16.14915 14.52396,25.91961 0.69355,3.20492 0.78363,4.61412 0.76224,11.92469 -0.0243,8.29028 -0.0243,8.29028 -1.27309,13.05278 -4.39351,16.75486 -13.25332,28.33296 -26.95122,35.22013 -5.85148,2.94207 -12.48611,4.79228 -21.10494,5.88556 -5.65001,0.7167 -13.89345,2.78603 -19.03847,4.77918 -2.12797,0.82436 -9.58922,4.33192 -16.58056,7.79457 -12.711519,6.29573 -12.711519,6.29573 -9.481569,3.20745 z m -1.67449,-30.49056 c -8.7623,-9.85217 -13.52327,-18.63671 -15.87949,-29.29954 -0.54745,-2.47745 -0.77017,-5.08503 -0.91858,-10.75456 -0.1811,-6.91831 -0.13572,-7.74517 0.60021,-10.93612 5.69633,-24.69884 21.996019,-39.332312 47.450729,-42.600102 12.45079,-1.5984 18.57073,-3.75944 37.74722,-13.32911 6.59694,-3.29208 11.91507,-5.91446 11.81805,-5.82751 -1.02458,0.91829 -82.428049,79.078922 -85.638159,82.226632 -2.37759,2.33137 -4.28259,4.27398 -4.23333,4.31692 0.0493,0.0429 7.63018,-2.12542 16.846499,-4.81859 9.21632,-2.69316 16.84705,-4.85758 16.95718,-4.80981 0.11014,0.0478 -3.19076,5.80185 -7.33533,12.78685 -4.14456,6.985 -9.24971,15.59962 -11.34477,19.1436 -3.8092,6.4436 -3.8092,6.4436 -6.070229,3.90134 z"
       id="path4668" /></g></svg>
